<?xml version="1.0" encoding="UTF-8"?>
<svg width="423px" height="191px" viewBox="0 0 423 191" version="1.1" xmlns="http://www.w3.org/2000/svg" xmlns:xlink="http://www.w3.org/1999/xlink">
    <title>55D8C216-750C-4896-938D-7F2E3AE98BEF</title>
    <g id="Dashboard" stroke="none" stroke-width="1" fill="none" fill-rule="evenodd">
        <g id="First-user-access-denied" transform="translate(-512.000000, -1788.000000)">
            <g id="Group-11" transform="translate(512.438678, 1788.000000)">
                <ellipse id="Oval" fill="#C2C2C2" opacity="0.125023251" transform="translate(211.061322, 153.000000) rotate(-1.000000) translate(-211.061322, -153.000000) " cx="211.061322" cy="153" rx="210.5" ry="34"></ellipse>
                <rect id="Rectangle" stroke="#C2C2C2" stroke-width="2" fill="#FFFFFF" x="148.122643" y="44" width="123" height="87" rx="5"></rect>
                <path d="M281.122643,138 L281.122643,140 C281.122643,142.209139 280.227213,144.209139 278.779498,145.656854 C277.331782,147.104569 275.331782,148 273.122643,148 L273.122643,148 L147.122643,148 C144.913504,148 142.913504,147.104569 141.465789,145.656854 C140.018074,144.209139 139.122643,142.209139 139.122643,140 L139.122643,140 L139.122643,138 L281.122643,138 Z" id="Rectangle" stroke="#C2C2C2" stroke-width="2" fill="#FFFFFF"></path>
                <path d="M97.1226433,36 C98.305438,50.4213617 104.665778,59.0189517 116.203664,61.7927698 C133.510493,65.9534971 125.583202,49.9605624 116.203664,46.4760124 C106.824126,42.9914625 103.582522,61.486645 145.122643,86" id="Path-2" stroke="#979797" stroke-dasharray="1,2"></path>
                <g id="icons8-hand-cursor" transform="translate(121.561322, 98.000000)" fill="#C2C2C2" fill-rule="nonzero">
                    <path d="M7.07649528,0 C5.77737656,0 4.70660614,1.01660175 4.70660614,2.25 L4.70660614,11.109375 L4.1881929,10.59375 L3.99070213,10.4296875 C3.08039296,9.5654295 1.59304106,9.5654295 0.682731882,10.4296875 C-0.227577294,11.2939455 -0.227577294,12.7060545 0.682731882,13.5703125 L0.682731882,13.59375 L7.15055432,19.6640625 L7.19992701,19.6875 L7.22461335,19.734375 C8.28921179,20.4931642 9.64696078,21 11.1744286,21 L12.5321776,21 C16.1147832,21 19,18.260742 19,14.859375 L19,9 C19,7.76660175 17.9292296,6.75 16.6301109,6.75 C16.2937596,6.75 15.9820947,6.837891 15.6920297,6.9609375 C15.4328231,5.98535175 14.4978276,5.25 13.3961996,5.25 C12.7913842,5.25 12.2359414,5.47558575 11.8162736,5.8359375 C11.3966057,5.47558575 10.8411629,5.25 10.2363475,5.25 C9.95862648,5.25 9.69633347,5.30566425 9.44638442,5.390625 L9.44638442,2.25 C9.44638442,1.01660175 8.375614,0 7.07649528,0 Z M7.07649528,1.5 C7.5146783,1.5 7.86645833,1.83398475 7.86645833,2.25 L7.86645833,10.5 L9.44638442,10.5 L9.44638442,7.5 C9.44638442,7.08398475 9.79816523,6.75 10.2363475,6.75 C10.6745305,6.75 11.0263105,7.08398475 11.0263105,7.5 L11.0263105,10.5 L12.6062366,10.5 L12.6062366,7.5 C12.6062366,7.08398475 12.9580174,6.75 13.3961996,6.75 C13.8343827,6.75 14.1861627,7.08398475 14.1861627,7.5 L14.1861627,10.5 L15.8401478,10.5 L15.8401478,9 C15.8401478,8.58398475 16.1919286,8.25 16.6301109,8.25 C17.0682939,8.25 17.4200739,8.58398475 17.4200739,9 L17.4200739,14.859375 C17.4200739,17.458008 15.2692763,19.5 12.5321776,19.5 L11.1744286,19.5 C10.017256,19.5 9.01745897,19.1074223 8.18738081,18.515625 L1.79361741,12.515625 C1.44183739,12.181641 1.44183739,11.8183598 1.79361741,11.484375 C2.14539823,11.150391 2.52803658,11.150391 2.8798166,11.484375 L6.28653224,14.71875 L6.28653224,2.25 C6.28653224,1.83398475 6.63831305,1.5 7.07649528,1.5 Z" id="Shape"></path>
                </g>
                <g id="Group-5" transform="translate(232.222893, 0.000000)" stroke="#F5A623" stroke-linecap="square">
                    <line x1="8.00182867" y1="5.5" x2="8.00182867" y2="0.825662261" id="Line-2"></line>
                    <line x1="8.00182867" y1="15.5" x2="8.00182867" y2="10.8256623" id="Line-2"></line>
                    <line x1="3.00182867" y1="10.5" x2="3.00182867" y2="5.82566226" id="Line-2" transform="translate(3.000000, 8.000000) rotate(90.000000) translate(-3.000000, -8.000000) "></line>
                    <line x1="13.0018287" y1="10.5" x2="13.0018287" y2="5.82566226" id="Line-2" transform="translate(13.000000, 8.000000) rotate(90.000000) translate(-13.000000, -8.000000) "></line>
                </g>
                <g id="Group-5" transform="translate(93.222893, 88.000000)" stroke="#F5A623" stroke-linecap="square">
                    <line x1="8.00182867" y1="5.5" x2="8.00182867" y2="0.825662261" id="Line-2"></line>
                    <line x1="8.00182867" y1="15.5" x2="8.00182867" y2="10.8256623" id="Line-2"></line>
                    <line x1="3.00182867" y1="10.5" x2="3.00182867" y2="5.82566226" id="Line-2" transform="translate(3.000000, 8.000000) rotate(90.000000) translate(-3.000000, -8.000000) "></line>
                    <line x1="13.0018287" y1="10.5" x2="13.0018287" y2="5.82566226" id="Line-2" transform="translate(13.000000, 8.000000) rotate(90.000000) translate(-13.000000, -8.000000) "></line>
                </g>
                <g id="Group-5" transform="translate(294.222893, 90.000000)" stroke="#F5A623" stroke-linecap="square">
                    <line x1="8.00182867" y1="5.5" x2="8.00182867" y2="0.825662261" id="Line-2"></line>
                    <line x1="8.00182867" y1="15.5" x2="8.00182867" y2="10.8256623" id="Line-2"></line>
                    <line x1="3.00182867" y1="10.5" x2="3.00182867" y2="5.82566226" id="Line-2" transform="translate(3.000000, 8.000000) rotate(90.000000) translate(-3.000000, -8.000000) "></line>
                    <line x1="13.0018287" y1="10.5" x2="13.0018287" y2="5.82566226" id="Line-2" transform="translate(13.000000, 8.000000) rotate(90.000000) translate(-13.000000, -8.000000) "></line>
                </g>
                <rect id="Rectangle" fill="#F7F7F7" x="189.561322" y="130" width="43" height="2"></rect>
                <g id="Group-3" opacity="0.5" transform="translate(157.561322, 52.000000)" fill="#474747" fill-rule="nonzero">
                    <g id="noun_profile_575595">
                        <path d="M13.7308735,0.719228559 C12.5452479,0.242074496 11.2899237,0 9.99987509,0 C4.9610912,0 0.694737631,3.76527018 0.0764436228,8.75815034 C0.0257310234,9.16635439 0,9.5845512 0,10.0007495 C0,15.514502 4.48594162,20 9.99987509,20 C11.993155,20 13.8505352,19.4119264 15.4116339,18.4024083 C15.4675927,18.3824227 15.5175558,18.3511954 15.5572765,18.308976 C18.234552,16.5127782 20,13.459242 20,10.0002498 C20,5.89422669 17.5395646,2.25086812 13.7308735,0.719228559 Z M9.99987509,19.2505434 C8.19195843,19.2505434 6.5049526,18.726923 5.07825479,17.8270754 C5.08400055,17.8010942 5.08774779,17.7738639 5.08774779,17.7458842 C5.08774779,17.478578 5.11322899,16.9467136 5.1529497,16.7223763 C5.60986273,14.1922106 8.38606528,13.8147343 10.0001249,13.8147343 C11.3651182,13.8147343 14.5745013,14.1260086 14.8880201,17.0064203 C14.893516,17.0661271 14.90176,17.3956382 14.9080053,17.8355692 C13.4845551,18.7306703 11.8022958,19.2505434 9.99987509,19.2505434 Z M15.6482094,17.3184441 C15.6437128,17.1290814 15.6389663,16.9784406 15.6329707,16.9262285 C15.3696649,14.5084814 13.263718,13.0652777 10.0001249,13.0652777 C6.80922819,13.0652777 4.82594087,14.3168703 4.41524376,16.5902221 C4.38276771,16.773839 4.36178318,17.0618801 4.35004184,17.317195 C2.16215541,15.6239227 0.749447283,12.9748432 0.749447283,10.0004996 C0.749447283,9.61527892 0.77317978,9.22805966 0.820394959,8.85033351 C1.39222324,4.23218167 5.33856281,0.749456644 10.0001249,0.749456644 C11.1934948,0.749456644 12.3546385,0.973294362 13.4510798,1.41447451 C16.9742315,2.83169702 19.2505527,6.20175373 19.2505527,10.0004996 C19.2505527,12.9755927 17.8375948,15.6254216 15.6482094,17.3184441 Z M10.0001249,4.871718 C8.16073146,4.871718 6.875929,6.24347348 6.875929,8.20754953 C6.875929,10.280047 8.27739542,11.9660746 10.0001249,11.9660746 C11.7228544,11.9660746 13.1243208,10.280047 13.1243208,8.20754953 C13.1243208,6.24347348 11.8395184,4.871718 10.0001249,4.871718 Z M10.0001249,11.2163681 C8.69059069,11.2163681 7.62537628,9.86659672 7.62537628,8.20729971 C7.62537628,6.66042119 8.57967249,5.62092483 10.0001249,5.62092483 C11.4205773,5.62092483 12.3748735,6.66017138 12.3748735,8.20729971 C12.3748735,9.86659672 11.3094093,11.2163681 10.0001249,11.2163681 Z" id="Shape"></path>
                    </g>
                </g>
                <rect id="Rectangle" fill="#D8D8D8" x="185.561322" y="58" width="35" height="7"></rect>
                <rect id="Rectangle" fill="#D8D8D8" x="159.561322" y="80" width="102" height="4"></rect>
                <rect id="Rectangle" fill="#D8D8D8" x="159.561322" y="92" width="101" height="4"></rect>
                <rect id="Rectangle" fill="#D8D8D8" x="159.561322" y="104" width="101" height="4"></rect>
                <rect id="Rectangle" stroke="#FFFFFF" fill="#FFFFFF" x="248.061322" y="107.5" width="48" height="71" rx="23"></rect>
                <rect id="Rectangle" stroke="#FFFFFF" fill="#FFFFFF" x="248.061322" y="107.5" width="48" height="71" rx="23"></rect>
                <rect id="Rectangle" stroke="#FFFFFF" fill="#FFFFFF" x="248.061322" y="107.5" width="48" height="71" rx="23"></rect>
                <rect id="Rectangle" fill="#B8E7F8" opacity="0.480422247" x="253.561322" y="109" width="46" height="74" rx="23"></rect>
                <rect id="Rectangle" stroke="#FFFFFF" fill="#FFFFFF" x="248.061322" y="107.5" width="48" height="71" rx="23"></rect>
                <rect id="Rectangle" fill="#B8E7F8" opacity="0.5" x="255.561322" y="115" width="32" height="56" rx="16"></rect>
                <g id="icons8-mouse" transform="translate(272.561322, 94.000000)" fill="#C2C2C2" fill-rule="nonzero">
                    <path d="M5.99607872,0 C5.7372547,0 5.482353,0.0926612765 5.28235275,0.281690136 L2.5137259,2.89844372 C1.73333352,3.63973355 1.29803917,4.62194234 1.29803917,5.66345432 C1.29803917,6.70867346 1.73333352,7.69458846 2.5137259,8.43217208 C3.34509842,9.21793931 3.34509842,10.496664 2.5137259,11.2824313 L0.294117637,13.3765748 C-0.0980392122,13.7509269 -0.0980392122,14.3476649 0.294117637,14.7220161 C0.490196563,14.9036318 0.749019581,15 1.0078436,15 C1.2627453,15 1.52156933,14.9036318 1.71764725,14.7220161 L3.93333319,12.6241663 C5.54509809,11.1008155 5.54509809,8.61749407 3.93333319,7.09043701 C3.52941239,6.71237967 3.30588223,6.20459637 3.30588223,5.66345432 C3.30588223,5.12601943 3.52941239,4.62194234 3.93333319,4.24017784 L6.70588236,1.62342521 C7.09803921,1.25278029 7.09803921,0.648628841 6.70588236,0.281690136 C6.50588212,0.0926612765 6.25098042,0 5.99607872,0 Z" id="Shape"></path>
                </g>
                <path d="M279.772081,112.14054 C274.48127,112.14054 269.504628,114.168642 265.761903,117.848774 L245.978275,137.297061 C242.240102,140.977192 240.177505,145.870604 240.177505,151.072931 C240.177505,156.279736 242.240102,161.16867 245.978275,164.848801 L249.274788,168.09466 C253.022066,171.774791 257.994154,173.798416 263.289519,173.798416 C268.584884,173.798416 273.561524,171.774791 277.299696,168.09466 L297.078772,148.641895 C300.826051,144.961764 302.884094,140.068353 302.884094,134.866025 C302.884094,129.663698 300.821498,124.770286 297.078772,121.090155 L293.782259,117.848774 C290.039534,114.168642 285.067446,112.14054 279.772081,112.14054 Z M279.772081,114.432788 C284.443659,114.432788 288.832938,116.223606 292.138556,119.469464 L292.990004,120.306672 C292.935365,120.346965 292.87162,120.369351 292.816982,120.418598 L288.218256,124.944891 C287.758384,125.392596 287.758384,126.117878 288.218256,126.565583 C288.441363,126.789434 288.741874,126.90136 289.042384,126.90136 C289.338342,126.90136 289.638853,126.789434 289.861959,126.565583 L294.469792,122.039289 C294.519877,121.990041 294.542643,121.927363 294.579068,121.869161 L295.435069,122.706369 C298.736134,125.956704 300.552867,130.272577 300.552867,134.866025 C300.557412,139.459475 298.736134,143.775347 295.435069,147.025682 L291.314428,151.072931 L279.772081,139.732574 L286.365106,133.245335 C287.025319,132.596163 287.389575,131.732093 287.389575,130.814299 C287.389575,129.896505 287.029873,129.032434 286.369659,128.383263 C285.049233,127.08492 282.745317,127.080442 281.424891,128.383263 L274.831866,134.866025 L263.289519,123.521191 L267.410159,119.469464 C270.711225,116.223606 275.105057,114.432788 279.772081,114.432788 Z M261.641263,125.141881 L273.179056,136.486716 L273.179056,136.491193 C271.817651,137.82983 271.817651,140.010151 273.179056,141.348788 C273.862036,142.020345 274.759015,142.356123 275.655994,142.356123 C276.54842,142.356123 277.445399,142.020345 278.128378,141.348788 L289.661619,152.698099 L275.655994,166.473969 C272.350375,169.719827 267.961096,171.510645 263.289519,171.510645 C258.617942,171.510645 254.228663,169.719827 250.927596,166.473969 L247.631084,163.232588 C244.325465,159.982253 242.508741,155.666381 242.508741,151.072931 C242.508741,146.483959 244.330018,142.16361 247.631084,138.917751 L261.641263,125.141881 Z M283.897276,129.677129 C284.197786,129.681607 284.498297,129.789056 284.721403,130.003954 C284.939957,130.218852 285.058339,130.505383 285.058339,130.814299 C285.058339,131.123215 284.939957,131.409746 284.721403,131.624644 L276.475569,139.728098 C276.024802,140.175802 275.287185,140.175802 274.831866,139.728098 C274.376546,139.280393 274.376546,138.555111 274.831866,138.107406 L283.068594,130.003954 C283.2917,129.789056 283.596764,129.677129 283.897276,129.677129 Z" id="Shape" fill="#C2C2C2" fill-rule="nonzero" transform="translate(271.530800, 142.969478) rotate(-45.000000) translate(-271.530800, -142.969478) "></path>
                <polygon id="Path-3" fill="#DCF3FB" points="84.5613216 26 96.4315094 46.1068316 99.0317594 36.8744263 105.920605 31.4372131"></polygon>
                <g id="icons8-send-mail" transform="translate(76.561322, 17.000000)" fill="#C2C2C2" fill-rule="nonzero">
                    <path d="M2.87448108,1.47907286 C2.55508142,1.47755132 2.25640333,1.63703078 2.08000556,1.90329479 C1.90360779,2.1695588 1.87323135,2.50677143 1.99920507,2.80027113 L10.9629213,23.6432045 C11.1086629,23.9815738 11.4373399,24.2047866 11.8056182,24.2155013 C12.1738965,24.2262159 12.5149958,24.0224896 12.6801649,23.693166 L16.4977013,16.0584051 L24.1364747,12.2336226 C24.4658115,12.0684601 24.669546,11.7273749 24.6588309,11.3591118 C24.6481157,10.9908487 24.424894,10.6621853 24.0865112,10.5164495 L3.24272633,1.55680071 C3.12640947,1.50653395 3.00119145,1.48010712 2.87448108,1.47907286 Z M7.02880468,5.24465288 L21.4662343,11.4509031 L15.9795674,14.1968999 L7.02880468,5.24465288 Z M5.68905809,6.58804504 L14.6398208,15.5365918 L11.8974126,21.0230346 L5.68905809,6.58804504 Z" id="Shape" transform="translate(13.290813, 12.847483) rotate(-8.000000) translate(-13.290813, -12.847483) "></path>
                </g>
                <rect id="Rectangle" fill="#FFFFFF" x="231.561322" y="54" width="83" height="28" rx="2"></rect>
                <g id="Group-12" transform="translate(233.561322, 56.000000)">
                    <rect id="Rectangle" stroke="#C2C2C2" stroke-width="2" fill="#FFFFFF" x="1" y="1" width="77" height="22" rx="2"></rect>
                    <g id="noun_Arrow_2626413" transform="translate(64.500000, 12.000000) scale(1, -1) translate(-64.500000, -12.000000) translate(59.000000, 9.000000)" fill="#C2C2C2" fill-rule="nonzero">
                        <g id="Group">
                            <path d="M5.44844667,0.0585363636 C5.23728219,0.0708067149 5.03689302,0.155118278 4.88125,0.297178182 L0.48125,4.29718182 C0.229738023,4.51389427 0.116581282,4.84887401 0.185696979,5.17211222 C0.254812677,5.49535044 0.495318658,5.7559538 0.813872275,5.85277967 C1.13242589,5.94960554 1.47887139,5.86740885 1.71875,5.63809091 L5.5,2.20057818 L9.28125,5.63809091 C9.52112861,5.86740885 9.86757411,5.94960554 10.1861277,5.85277967 C10.5046813,5.7559538 10.7451873,5.49535044 10.814303,5.17211222 C10.8834187,4.84887401 10.770262,4.51389427 10.51875,4.29718182 L6.11875,0.297178182 C5.93687501,0.131293729 5.6951795,0.0452451377 5.44844667,0.0585363636 L5.44844667,0.0585363636 Z" id="Path"></path>
                        </g>
                    </g>
                </g>
            </g>
        </g>
    </g>
</svg>